<?xml version="1.0" encoding="utf-8"?>
<!-- Generator: Adobe Illustrator 16.0.0, SVG Export Plug-In . SVG Version: 6.00 Build 0)  -->
<!DOCTYPE svg PUBLIC "-//W3C//DTD SVG 1.1//EN" "http://www.w3.org/Graphics/SVG/1.1/DTD/svg11.dtd">
<svg version="1.1" id="Ebene_1" xmlns="http://www.w3.org/2000/svg" xmlns:xlink="http://www.w3.org/1999/xlink" x="0px" y="0px"
	 width="261.833px" height="111.245px" viewBox="0 0 261.833 111.245" enable-background="new 0 0 261.833 111.245"
	 xml:space="preserve">
<rect x="11.833" y="28.506" fill="#DADADA" width="246.069" height="11.25"/>
<rect x="11.833" y="72.2" fill="#DADADA" width="246.069" height="12.057"/>
<g>
	<path d="M5.49,36.096H2.414L1.875,37.35c-0.133,0.309-0.199,0.539-0.199,0.691c0,0.121,0.058,0.228,0.173,0.319
		s0.364,0.151,0.747,0.179v0.217H0.094V38.54c0.332-0.059,0.547-0.135,0.645-0.229c0.199-0.188,0.42-0.568,0.662-1.143l2.795-6.539
		H4.4l2.766,6.609c0.223,0.531,0.425,0.876,0.606,1.034s0.435,0.247,0.759,0.267v0.217H5.396V38.54
		c0.316-0.016,0.53-0.068,0.642-0.158s0.167-0.199,0.167-0.328c0-0.172-0.078-0.443-0.234-0.814L5.49,36.096z M5.326,35.663
		l-1.348-3.211l-1.383,3.211H5.326z"/>
</g>
<g>
	<path d="M5.543,78.233c0.551,0.117,0.963,0.305,1.236,0.563c0.379,0.359,0.568,0.799,0.568,1.318c0,0.395-0.125,0.772-0.375,1.134
		s-0.593,0.625-1.028,0.791s-1.101,0.249-1.995,0.249h-3.75v-0.217h0.299c0.332,0,0.57-0.105,0.715-0.316
		c0.09-0.137,0.135-0.428,0.135-0.873v-5.133c0-0.492-0.057-0.803-0.17-0.932c-0.152-0.172-0.379-0.258-0.68-0.258H0.199v-0.217
		h3.434c0.641,0,1.154,0.047,1.541,0.141c0.586,0.141,1.033,0.39,1.342,0.747s0.463,0.769,0.463,1.233
		c0,0.398-0.121,0.755-0.363,1.069S6.016,78.081,5.543,78.233z M2.473,77.917c0.145,0.027,0.31,0.048,0.495,0.062
		s0.39,0.021,0.612,0.021c0.57,0,0.999-0.062,1.286-0.185s0.507-0.312,0.659-0.565s0.229-0.531,0.229-0.832
		c0-0.465-0.189-0.861-0.568-1.189s-0.932-0.492-1.658-0.492c-0.391,0-0.742,0.043-1.055,0.129V77.917z M2.473,81.713
		c0.453,0.105,0.9,0.158,1.342,0.158c0.707,0,1.246-0.159,1.617-0.478s0.557-0.712,0.557-1.181c0-0.309-0.084-0.605-0.252-0.891
		s-0.441-0.51-0.82-0.674s-0.848-0.246-1.406-0.246c-0.242,0-0.449,0.004-0.621,0.012s-0.311,0.021-0.416,0.041V81.713z"/>
</g>
<circle cx="22.833" cy="42.756" r="1.125"/>
<circle cx="40.896" cy="68.256" r="1.125"/>
<circle cx="58.771" cy="42.756" r="1.125"/>
<circle cx="76.833" cy="68.256" r="1.125"/>
<circle cx="94.836" cy="42.756" r="1.125"/>
<circle cx="112.899" cy="68.256" r="1.125"/>
<circle cx="130.774" cy="42.756" r="1.125"/>
<circle cx="148.837" cy="68.256" r="1.125"/>
<circle cx="166.712" cy="42.756" r="1.125"/>
<circle cx="184.774" cy="68.256" r="1.125"/>
<circle cx="202.777" cy="42.756" r="1.125"/>
<circle cx="220.84" cy="68.256" r="1.125"/>
<circle cx="238.715" cy="42.756" r="1.125"/>
<circle cx="256.777" cy="68.256" r="1.125"/>
<g>
	<g>
		<path fill="none" stroke="#000000" stroke-width="0.75" stroke-miterlimit="10" d="M25.072,27.55c0,0,19.302-27.043,67.302-27.543
			c40.242-0.419,63.527,19.282,70.003,25.661"/>
		<g>
			<path d="M164.249,27.631c-1.234-0.579-2.922-1.143-4.223-1.243l2.069-0.948l0.983-2.052
				C163.157,24.69,163.69,26.388,164.249,27.631z"/>
		</g>
	</g>
</g>
<g>
	<path d="M22.867,34.047c-0.51-0.43-0.838-0.775-0.986-1.035c-0.147-0.26-0.221-0.531-0.221-0.811c0-0.43,0.162-0.8,0.484-1.111
		s0.752-0.466,1.287-0.466c0.519,0,0.937,0.145,1.254,0.435c0.316,0.29,0.475,0.62,0.475,0.991c0,0.248-0.085,0.5-0.256,0.757
		s-0.527,0.56-1.068,0.908c0.557,0.443,0.926,0.791,1.106,1.045c0.241,0.332,0.361,0.682,0.361,1.05
		c0,0.465-0.172,0.863-0.518,1.194s-0.798,0.496-1.358,0.496c-0.611,0-1.087-0.197-1.429-0.591
		c-0.272-0.316-0.409-0.661-0.409-1.035c0-0.293,0.096-0.583,0.288-0.872C22.068,34.713,22.398,34.395,22.867,34.047z M23.09,34.232
		c-0.263,0.228-0.458,0.476-0.584,0.745c-0.126,0.269-0.19,0.559-0.19,0.872c0,0.42,0.112,0.756,0.335,1.008
		s0.507,0.378,0.853,0.378c0.342,0,0.616-0.099,0.822-0.298c0.206-0.199,0.309-0.439,0.309-0.723c0-0.234-0.06-0.444-0.181-0.63
		C24.228,35.24,23.773,34.789,23.09,34.232z M23.612,33.524c0.38-0.352,0.62-0.629,0.722-0.833c0.101-0.204,0.152-0.434,0.152-0.691
		c0-0.342-0.093-0.609-0.28-0.803c-0.187-0.194-0.441-0.291-0.765-0.291c-0.323,0-0.585,0.096-0.788,0.288s-0.304,0.417-0.304,0.674
		c0,0.169,0.042,0.338,0.126,0.508s0.204,0.331,0.358,0.483L23.612,33.524z"/>
</g>
<g>
	<path d="M92.66,32.021c0.184-0.446,0.416-0.79,0.695-1.033c0.28-0.243,0.629-0.364,1.047-0.364c0.516,0,0.912,0.172,1.188,0.518
		c0.209,0.257,0.313,0.532,0.313,0.825c0,0.482-0.294,0.98-0.883,1.494c0.396,0.16,0.695,0.387,0.897,0.684s0.304,0.645,0.304,1.045
		c0,0.573-0.177,1.069-0.532,1.489c-0.462,0.547-1.132,0.82-2.009,0.82c-0.434,0-0.729-0.055-0.886-0.166s-0.235-0.229-0.235-0.356
		c0-0.094,0.037-0.177,0.112-0.249c0.074-0.072,0.164-0.107,0.268-0.107c0.079,0,0.16,0.013,0.242,0.039
		c0.054,0.016,0.176,0.076,0.366,0.178s0.321,0.164,0.395,0.183c0.117,0.036,0.242,0.054,0.375,0.054
		c0.323,0,0.604-0.128,0.843-0.386c0.239-0.257,0.358-0.562,0.358-0.913c0-0.257-0.056-0.508-0.167-0.752
		c-0.082-0.182-0.172-0.321-0.271-0.415c-0.136-0.13-0.323-0.248-0.561-0.354c-0.237-0.106-0.479-0.159-0.727-0.159h-0.152v-0.146
		c0.25-0.033,0.501-0.125,0.753-0.278c0.251-0.153,0.435-0.337,0.548-0.552s0.171-0.451,0.171-0.708
		c0-0.335-0.102-0.606-0.306-0.813s-0.458-0.31-0.762-0.31c-0.491,0-0.901,0.27-1.23,0.811L92.66,32.021z"/>
</g>
<g>
	<path d="M200.66,32.021c0.184-0.446,0.415-0.79,0.695-1.033s0.63-0.364,1.048-0.364c0.516,0,0.912,0.172,1.188,0.518
		c0.209,0.257,0.313,0.532,0.313,0.825c0,0.482-0.294,0.98-0.883,1.494c0.396,0.16,0.695,0.387,0.897,0.684s0.304,0.645,0.304,1.045
		c0,0.573-0.178,1.069-0.531,1.489c-0.463,0.547-1.133,0.82-2.01,0.82c-0.434,0-0.729-0.055-0.885-0.166
		c-0.157-0.111-0.236-0.229-0.236-0.356c0-0.094,0.037-0.177,0.112-0.249c0.074-0.072,0.163-0.107,0.269-0.107
		c0.078,0,0.16,0.013,0.242,0.039c0.054,0.016,0.176,0.076,0.365,0.178s0.321,0.164,0.395,0.183
		c0.117,0.036,0.242,0.054,0.375,0.054c0.323,0,0.604-0.128,0.844-0.386c0.238-0.257,0.357-0.562,0.357-0.913
		c0-0.257-0.055-0.508-0.166-0.752c-0.082-0.182-0.172-0.321-0.271-0.415c-0.136-0.13-0.323-0.248-0.561-0.354
		s-0.479-0.159-0.727-0.159h-0.151v-0.146c0.25-0.033,0.5-0.125,0.752-0.278s0.436-0.337,0.549-0.552s0.171-0.451,0.171-0.708
		c0-0.335-0.103-0.606-0.306-0.813c-0.205-0.207-0.459-0.31-0.763-0.31c-0.491,0-0.901,0.27-1.229,0.811L200.66,32.021z"/>
</g>
<g>
	<path d="M168.774,34.94v0.693h-0.863v1.748h-0.784v-1.748h-2.726v-0.625l2.986-4.385h0.523v4.316H168.774z M167.127,34.94v-3.286
		l-2.261,3.286H167.127z"/>
</g>
<g>
	<path d="M130.867,34.047c-0.51-0.43-0.838-0.775-0.986-1.035c-0.147-0.26-0.221-0.531-0.221-0.811c0-0.43,0.162-0.8,0.484-1.111
		s0.752-0.466,1.287-0.466c0.519,0,0.937,0.145,1.254,0.435c0.316,0.29,0.475,0.62,0.475,0.991c0,0.248-0.085,0.5-0.257,0.757
		c-0.17,0.257-0.526,0.56-1.068,0.908c0.557,0.443,0.926,0.791,1.107,1.045c0.24,0.332,0.36,0.682,0.36,1.05
		c0,0.465-0.173,0.863-0.518,1.194c-0.345,0.331-0.798,0.496-1.358,0.496c-0.611,0-1.087-0.197-1.429-0.591
		c-0.272-0.316-0.409-0.661-0.409-1.035c0-0.293,0.096-0.583,0.288-0.872C130.068,34.713,130.398,34.395,130.867,34.047z
		 M131.09,34.232c-0.263,0.228-0.458,0.476-0.584,0.745c-0.126,0.269-0.19,0.559-0.19,0.872c0,0.42,0.112,0.756,0.335,1.008
		s0.507,0.378,0.853,0.378c0.342,0,0.616-0.099,0.822-0.298c0.206-0.199,0.309-0.439,0.309-0.723c0-0.234-0.06-0.444-0.181-0.63
		C132.228,35.24,131.773,34.789,131.09,34.232z M131.612,33.524c0.38-0.352,0.62-0.629,0.722-0.833
		c0.101-0.204,0.152-0.434,0.152-0.691c0-0.342-0.093-0.609-0.28-0.803c-0.187-0.194-0.441-0.291-0.765-0.291
		c-0.323,0-0.585,0.096-0.788,0.288s-0.304,0.417-0.304,0.674c0,0.169,0.042,0.338,0.126,0.508s0.204,0.331,0.358,0.483
		L131.612,33.524z"/>
</g>
<g>
	<path d="M60.775,34.94v0.693h-0.864v1.748h-0.784v-1.748h-2.726v-0.625l2.987-4.385h0.522v4.316H60.775z M59.127,34.94v-3.286
		l-2.261,3.286H59.127z"/>
</g>
<g>
	<path d="M184.05,77.629c-0.511-0.43-0.839-0.774-0.986-1.035c-0.146-0.26-0.221-0.53-0.221-0.811c0-0.43,0.162-0.799,0.484-1.11
		s0.752-0.466,1.287-0.466c0.52,0,0.938,0.145,1.254,0.434c0.316,0.29,0.475,0.621,0.475,0.992c0,0.247-0.086,0.499-0.256,0.756
		c-0.172,0.258-0.527,0.561-1.068,0.908c0.557,0.443,0.926,0.791,1.105,1.045c0.241,0.332,0.361,0.683,0.361,1.051
		c0,0.465-0.172,0.863-0.518,1.193s-0.798,0.496-1.358,0.496c-0.61,0-1.087-0.197-1.429-0.592c-0.273-0.315-0.409-0.66-0.409-1.035
		c0-0.293,0.096-0.583,0.288-0.871C183.251,78.296,183.581,77.978,184.05,77.629z M184.272,77.815
		c-0.264,0.229-0.457,0.477-0.584,0.745s-0.19,0.56-0.19,0.872c0,0.42,0.112,0.756,0.335,1.008s0.508,0.379,0.853,0.379
		c0.342,0,0.616-0.1,0.821-0.299c0.206-0.198,0.309-0.439,0.309-0.723c0-0.234-0.06-0.443-0.18-0.629
		C185.411,78.823,184.956,78.372,184.272,77.815z M184.795,77.108c0.38-0.352,0.62-0.629,0.722-0.833s0.152-0.434,0.152-0.69
		c0-0.342-0.094-0.609-0.281-0.804c-0.186-0.194-0.441-0.29-0.764-0.29c-0.323,0-0.586,0.096-0.789,0.287
		c-0.202,0.192-0.304,0.417-0.304,0.674c0,0.17,0.042,0.339,0.126,0.508c0.084,0.17,0.203,0.331,0.358,0.484L184.795,77.108z"/>
</g>
<g>
	<path d="M114.775,78.524v0.693h-0.864v1.748h-0.784v-1.748h-2.726v-0.625l2.987-4.385h0.522v4.316H114.775z M113.127,78.524v-3.287
		l-2.261,3.287H113.127z"/>
</g>
<g>
	<path d="M38.91,75.604c0.184-0.446,0.416-0.791,0.695-1.033c0.28-0.242,0.629-0.363,1.047-0.363c0.516,0,0.912,0.172,1.188,0.518
		c0.209,0.257,0.313,0.531,0.313,0.824c0,0.482-0.294,0.98-0.883,1.494c0.396,0.16,0.695,0.388,0.897,0.684
		c0.203,0.297,0.304,0.645,0.304,1.045c0,0.573-0.177,1.07-0.532,1.49c-0.462,0.547-1.132,0.82-2.009,0.82
		c-0.434,0-0.729-0.056-0.886-0.166c-0.157-0.111-0.235-0.23-0.235-0.357c0-0.094,0.037-0.177,0.112-0.248
		c0.074-0.072,0.164-0.107,0.268-0.107c0.079,0,0.16,0.013,0.242,0.039c0.054,0.016,0.176,0.075,0.366,0.178
		s0.321,0.164,0.395,0.184c0.117,0.035,0.242,0.053,0.375,0.053c0.323,0,0.604-0.128,0.843-0.385
		c0.239-0.258,0.358-0.563,0.358-0.914c0-0.257-0.056-0.508-0.167-0.752c-0.082-0.182-0.172-0.32-0.271-0.414
		c-0.136-0.131-0.323-0.248-0.561-0.354c-0.237-0.106-0.479-0.159-0.727-0.159h-0.152v-0.146c0.25-0.032,0.501-0.125,0.753-0.277
		c0.251-0.153,0.435-0.338,0.548-0.553s0.171-0.45,0.171-0.707c0-0.336-0.102-0.607-0.306-0.813s-0.458-0.31-0.762-0.31
		c-0.491,0-0.901,0.27-1.23,0.811L38.91,75.604z"/>
</g>
<g>
	<path d="M222.524,78.524v0.693h-0.863v1.748h-0.784v-1.748h-2.726v-0.625l2.986-4.385h0.523v4.316H222.524z M220.877,78.524v-3.287
		l-2.261,3.287H220.877z"/>
</g>
<g>
	<path d="M146.66,75.604c0.184-0.446,0.415-0.791,0.695-1.033s0.63-0.363,1.048-0.363c0.516,0,0.912,0.172,1.188,0.518
		c0.209,0.257,0.313,0.531,0.313,0.824c0,0.482-0.294,0.98-0.883,1.494c0.396,0.16,0.695,0.388,0.897,0.684
		c0.202,0.297,0.304,0.645,0.304,1.045c0,0.573-0.178,1.07-0.531,1.49c-0.463,0.547-1.133,0.82-2.01,0.82
		c-0.434,0-0.729-0.056-0.885-0.166c-0.157-0.111-0.236-0.23-0.236-0.357c0-0.094,0.037-0.177,0.112-0.248
		c0.074-0.072,0.163-0.107,0.269-0.107c0.078,0,0.16,0.013,0.242,0.039c0.054,0.016,0.176,0.075,0.365,0.178
		s0.321,0.164,0.395,0.184c0.117,0.035,0.242,0.053,0.375,0.053c0.323,0,0.604-0.128,0.844-0.385
		c0.238-0.258,0.357-0.563,0.357-0.914c0-0.257-0.055-0.508-0.166-0.752c-0.082-0.182-0.172-0.32-0.271-0.414
		c-0.136-0.131-0.323-0.248-0.561-0.354s-0.479-0.159-0.727-0.159h-0.151v-0.146c0.25-0.032,0.5-0.125,0.752-0.277
		c0.252-0.153,0.436-0.338,0.549-0.553s0.171-0.45,0.171-0.707c0-0.336-0.103-0.607-0.306-0.813c-0.205-0.206-0.459-0.31-0.763-0.31
		c-0.491,0-0.901,0.27-1.229,0.811L146.66,75.604z"/>
</g>
<g>
	<path d="M76.199,77.629c-0.51-0.43-0.838-0.774-0.986-1.035c-0.147-0.26-0.221-0.53-0.221-0.811c0-0.43,0.162-0.799,0.484-1.11
		s0.752-0.466,1.287-0.466c0.519,0,0.937,0.145,1.254,0.434c0.316,0.29,0.475,0.621,0.475,0.992c0,0.247-0.085,0.499-0.256,0.756
		c-0.171,0.258-0.527,0.561-1.068,0.908c0.557,0.443,0.926,0.791,1.106,1.045c0.241,0.332,0.361,0.683,0.361,1.051
		c0,0.465-0.172,0.863-0.518,1.193s-0.798,0.496-1.358,0.496c-0.611,0-1.087-0.197-1.429-0.592c-0.272-0.315-0.409-0.66-0.409-1.035
		c0-0.293,0.096-0.583,0.288-0.871C75.4,78.296,75.73,77.978,76.199,77.629z M76.422,77.815c-0.263,0.229-0.458,0.477-0.584,0.745
		c-0.126,0.269-0.19,0.56-0.19,0.872c0,0.42,0.112,0.756,0.335,1.008s0.507,0.379,0.853,0.379c0.342,0,0.616-0.1,0.822-0.299
		c0.206-0.198,0.309-0.439,0.309-0.723c0-0.234-0.06-0.443-0.181-0.629C77.561,78.823,77.106,78.372,76.422,77.815z M76.945,77.108
		c0.38-0.352,0.62-0.629,0.722-0.833c0.101-0.204,0.152-0.434,0.152-0.69c0-0.342-0.093-0.609-0.28-0.804
		c-0.187-0.194-0.441-0.29-0.765-0.29c-0.323,0-0.585,0.096-0.788,0.287c-0.203,0.192-0.304,0.417-0.304,0.674
		c0,0.17,0.042,0.339,0.126,0.508c0.084,0.17,0.204,0.331,0.358,0.484L76.945,77.108z"/>
</g>
<g>
	<path d="M254.539,75.604c0.184-0.446,0.415-0.791,0.695-1.033s0.63-0.363,1.048-0.363c0.516,0,0.912,0.172,1.188,0.518
		c0.209,0.257,0.313,0.531,0.313,0.824c0,0.482-0.294,0.98-0.883,1.494c0.396,0.16,0.695,0.388,0.897,0.684
		c0.202,0.297,0.304,0.645,0.304,1.045c0,0.573-0.178,1.07-0.531,1.49c-0.463,0.547-1.133,0.82-2.01,0.82
		c-0.434,0-0.729-0.056-0.885-0.166c-0.157-0.111-0.236-0.23-0.236-0.357c0-0.094,0.037-0.177,0.112-0.248
		c0.074-0.072,0.163-0.107,0.269-0.107c0.078,0,0.16,0.013,0.242,0.039c0.054,0.016,0.176,0.075,0.365,0.178
		s0.321,0.164,0.395,0.184c0.117,0.035,0.242,0.053,0.375,0.053c0.323,0,0.604-0.128,0.844-0.385
		c0.238-0.258,0.357-0.563,0.357-0.914c0-0.257-0.055-0.508-0.166-0.752c-0.082-0.182-0.172-0.32-0.271-0.414
		c-0.136-0.131-0.323-0.248-0.561-0.354s-0.479-0.159-0.727-0.159h-0.151v-0.146c0.25-0.032,0.5-0.125,0.752-0.277
		c0.252-0.153,0.436-0.338,0.549-0.553s0.171-0.45,0.171-0.707c0-0.336-0.103-0.607-0.306-0.813c-0.205-0.206-0.459-0.31-0.763-0.31
		c-0.491,0-0.901,0.27-1.229,0.811L254.539,75.604z"/>
</g>
<g>
	<g>
		<line fill="none" stroke="#000000" stroke-width="0.75" stroke-miterlimit="10" x1="42.287" y1="65.09" x2="90.256" y2="44.718"/>
		<g>
			<path d="M92.756,43.656c-0.991,0.936-2.134,2.3-2.704,3.473l-0.124-2.272l-1.549-1.667C89.619,43.595,91.395,43.72,92.756,43.656
				z"/>
		</g>
	</g>
</g>
<g>
	<g>
		
			<line fill="none" stroke="#000000" stroke-width="0.75" stroke-miterlimit="10" x1="150.856" y1="65.09" x2="198.825" y2="44.718"/>
		<g>
			<path d="M201.325,43.656c-0.99,0.936-2.134,2.3-2.703,3.473l-0.125-2.272l-1.549-1.667
				C198.188,43.595,199.964,43.72,201.325,43.656z"/>
		</g>
	</g>
</g>
<g>
	<g>
		
			<line fill="none" stroke="#000000" stroke-width="0.75" stroke-miterlimit="10" x1="96.833" y1="43.656" x2="144.804" y2="64.028"/>
		<g>
			<path d="M147.303,65.09c-1.362-0.063-3.138,0.062-4.377,0.466l1.55-1.667l0.123-2.272
				C145.169,62.79,146.312,64.155,147.303,65.09z"/>
		</g>
	</g>
</g>
<g>
	<g>
		
			<line fill="none" stroke="#000000" stroke-width="0.7354" stroke-miterlimit="10" x1="204.999" y1="43.881" x2="251.601" y2="64.033"/>
		<g>
			<path d="M254.045,65.09c-1.335-0.071-3.077,0.04-4.295,0.429l1.529-1.625l0.137-2.228
				C251.967,62.821,253.079,64.167,254.045,65.09z"/>
		</g>
	</g>
</g>
<path fill="none" stroke="#000000" stroke-width="0.75" stroke-miterlimit="10" d="M134.651,28.756c0,0,20.129-28.25,68.129-28.75
	c23.358-0.243,41.282,6.559,53.529,13.606"/>
<path fill="none" stroke="#000000" stroke-width="0.5" stroke-miterlimit="10" d="M217.576,73.413"/>
<g>
	<g>
		<path fill="none" stroke="#000000" stroke-width="0.75" stroke-miterlimit="10" d="M61.79,28.756c0,0,9.512-13.292,32.558-13.534
			c17.605-0.185,28.45,7.711,32.591,11.451"/>
		<g>
			<path d="M128.858,28.588c-1.243-0.561-2.939-1.099-4.241-1.18l2.055-0.979l0.952-2.066
				C127.722,25.664,128.281,27.354,128.858,28.588z"/>
		</g>
	</g>
</g>
<g>
	<g>
		<path fill="none" stroke="#000000" stroke-width="0.75" stroke-miterlimit="10" d="M170.292,28.756
			c0,0,9.664-13.668,32.711-13.911c17.711-0.186,28.882,8.129,33.104,11.989"/>
		<g>
			<path d="M238.021,28.756c-1.241-0.563-2.937-1.105-4.238-1.189l2.057-0.974l0.957-2.064
				C236.891,25.829,237.446,27.52,238.021,28.756z"/>
		</g>
	</g>
</g>
<g>
	<g>
		<path fill="none" stroke="#000000" stroke-width="0.75" stroke-miterlimit="10" d="M78.397,83.695
			c0,0,19.302,27.043,67.301,27.543c40.242,0.419,63.528-19.281,70.004-25.66"/>
		<g>
			<path d="M217.573,83.613c-0.557,1.244-1.092,2.941-1.17,4.243l-0.982-2.052l-2.069-0.948
				C214.651,84.755,216.34,84.193,217.573,83.613z"/>
		</g>
	</g>
</g>
<path fill="none" stroke="#000000" stroke-width="0.75" stroke-miterlimit="10" d="M187.976,82.495c0,0,16.427,28.75,69.927,28.75"
	/>
<g>
	<g>
		<path fill="none" stroke="#000000" stroke-width="0.75" stroke-miterlimit="10" d="M115.114,82.495
			c0,0,9.512,13.291,32.559,13.533c17.604,0.186,28.449-7.711,32.59-11.451"/>
		<g>
			<path d="M182.183,82.663c-0.576,1.234-1.137,2.924-1.233,4.225l-0.952-2.066l-2.055-0.979
				C179.243,83.761,180.94,83.223,182.183,82.663z"/>
		</g>
	</g>
</g>
<path fill="none" stroke="#000000" stroke-width="0.75" stroke-miterlimit="10" d="M223.94,82.497c0,0,9.512,13.291,32.559,13.533"
	/>
<g>
</g>
<g>
</g>
<g>
</g>
<g>
</g>
<g>
</g>
<g>
</g>
<g>
</g>
</svg>
